<svg id="img" width="18" height="18" viewBox="0 0 18 18" fill="none" xmlns="http://www.w3.org/2000/svg">
<path d="M6.51751 13.3446C5.72444 13.1854 4.92058 12.8961 4.25915 12.3381C3.34682 11.5684 2.785 10.3578 2.785 8.5275C2.785 7.53325 3.10585 6.68276 3.64536 5.99896C3.51579 5.52303 3.39516 4.63332 3.83326 3.53805L3.92143 3.31764L4.14796 3.24664L4.2975 3.72375C4.14796 3.24664 4.14844 3.24649 4.14892 3.24634L4.14991 3.24603L4.15193 3.24541L4.1562 3.24413L4.16562 3.24142C4.1723 3.23956 4.17977 3.2376 4.18803 3.23559C4.20455 3.23156 4.2242 3.22735 4.24703 3.22335C4.29273 3.21535 4.35078 3.2083 4.42146 3.20537C4.56314 3.1995 4.75304 3.21029 4.99348 3.26139C5.43892 3.35607 6.05437 3.58825 6.86024 4.10555C7.55994 3.92975 8.29218 3.8425 9.0225 3.8425C9.75238 3.8425 10.4842 3.92965 11.1835 4.10523C11.9897 3.5831 12.6061 3.35029 13.0532 3.25683C13.2945 3.20637 13.4854 3.1968 13.628 3.20399C13.6992 3.20758 13.7576 3.21531 13.8036 3.22392C13.8266 3.22822 13.8464 3.23272 13.8631 3.237C13.8714 3.23914 13.8789 3.24122 13.8857 3.24319L13.8952 3.24605L13.8995 3.24741L13.9015 3.24806L13.9025 3.24839C13.903 3.24854 13.9035 3.2487 13.7475 3.72375L13.9035 3.2487L14.1251 3.32148L14.2117 3.53805C14.6498 4.63314 14.5293 5.52274 14.3997 5.99873C14.9388 6.68025 15.26 7.52253 15.26 8.5275C15.26 10.3638 14.6951 11.575 13.7791 12.3432C13.116 12.8994 12.3109 13.1865 11.5181 13.3448C11.6713 13.6986 11.7613 14.1308 11.7613 14.6362C11.7613 15.2396 11.7584 15.7836 11.7556 16.2145C11.7547 16.359 11.7537 16.4902 11.7529 16.6065C11.7515 16.7974 11.7505 16.948 11.7501 17.051C13.4203 16.4775 14.8712 15.3989 15.9016 13.9639C16.9404 12.5171 17.4995 10.7811 17.5 9L6.51751 13.3446ZM6.51751 13.3446C6.45571 13.4873 6.40414 13.6429 6.36493 13.8112C6.16041 13.878 5.90727 13.9285 5.6511 13.9049C5.31749 13.8742 4.93603 13.7169 4.61468 13.1768L4.61479 13.1768L4.609 13.1675C4.50743 13.005 4.30636 12.7256 4.01706 12.4828C3.72886 12.2409 3.31189 12.002 2.79379 12.0101C2.79363 12.0101 2.79347 12.0101 2.79331 12.0101L2.80125 12.51C2.15429 12.5197 2.39415 12.8277 2.67429 13.0215C2.67416 13.0215 2.67404 13.0216 2.67392 13.0216M6.51751 13.3446L2.72943 13.6901C2.80542 13.776 2.8849 13.8833 2.96146 13.9997C3.11474 14.2328 3.22973 14.4612 3.26708 14.5539M2.67392 13.0216C2.6722 13.022 2.67142 13.0223 2.67147 13.0223C2.67152 13.0223 2.67236 13.0221 2.67392 13.0216ZM2.67392 13.0216C2.67405 13.0216 2.67418 13.0215 2.67432 13.0215C2.72055 13.0535 2.76788 13.0823 2.8125 13.1062M2.8125 13.1062L2.56859 13.5427C2.56928 13.5431 2.56999 13.5435 2.57073 13.5439C2.57262 13.545 2.57451 13.546 2.57639 13.547L2.8125 13.1062ZM2.8125 13.1062C3.195 13.32 3.63375 14.1187 3.735 14.3775M3.735 14.3775L3.26389 14.545C3.26494 14.548 3.26601 14.5509 3.26708 14.5539M3.735 14.3775L3.26938 14.5597C3.26865 14.5578 3.26788 14.5559 3.26708 14.5539M3.735 14.3775L3.26708 14.5539M3.26708 14.5539C3.38321 14.8764 3.63653 15.3594 4.22311 15.6883C4.70851 15.9605 5.36845 16.097 6.26315 16.0104M3.26708 14.5539L6.26315 16.0104M6.26315 16.0104C6.2642 16.1786 6.26555 16.3374 6.2669 16.4803C6.26778 16.5738 6.26865 16.6599 6.26944 16.7373C6.27077 16.8691 6.27185 16.9758 6.27229 17.0508C6.27189 17.0508 6.27149 17.0507 6.27109 17.0507C2.91248 15.9122 0.5 12.7454 0.5 9C0.5 4.30364 4.30364 0.5 9 0.5C13.6963 0.5 17.4999 4.30357 17.5 8.99986L6.26315 16.0104Z" stroke="currentColor"/>
</svg>
